<!-- icon666.com - MILLIONS vector ICONS FREE --><svg id="Capa_1" enable-background="new 0 0 512 512" viewBox="0 0 512 512" xmlns="http://www.w3.org/2000/svg"><g><path d="m256 0c-143.551 0-256 112.449-256 256s112.449 256 256 256c143.552 0 256-112.448 256-256s-112.448-256-256-256zm20 471.11v-19.11c0-11.046-8.954-20-20-20s-20 8.954-20 20v19.11c-104.823-9.211-185.899-90.287-195.11-195.11h19.11c11.046 0 20-8.954 20-20s-8.954-20-20-20h-19.11c9.211-104.823 90.287-185.899 195.11-195.11v19.11c0 11.046 8.954 20 20 20s20-8.954 20-20v-19.11c104.823 9.211 185.899 90.287 195.11 195.11h-19.11c-11.046 0-20 8.954-20 20s8.954 20 20 20h19.11c-9.211 104.823-90.287 185.899-195.11 195.11z" fill="#000000" style="fill: rgb(255, 164, 15);"></path><path d="m188 292c21.385-16.039 48-36 48-76 0-33.084-26.916-60-60-60s-60 26.916-60 60c0 11.046 8.954 20 20 20s20-8.954 20-20c0-11.028 8.972-20 20-20s20 8.972 20 20c0 19.071-11.563 28.672-32 44-21.385 16.039-48 36-48 76 0 11.046 8.954 20 20 20h80c11.046 0 20-8.954 20-20s-8.954-20-20-20h-54.168c5.348-8.062 14.244-15.057 26.168-24z" fill="#000000" style="fill: rgb(255, 164, 15);"></path><path d="m376 156c-11.046 0-20 8.954-20 20v60h-40v-60c0-11.046-8.954-20-20-20s-20 8.954-20 20v80c0 11.046 8.954 20 20 20h60v60c0 11.046 8.954 20 20 20s20-8.954 20-20v-160c0-11.046-8.954-20-20-20z" fill="#000000" style="fill: rgb(255, 164, 15);"></path></g></svg>