<!-- icon666.com - MILLIONS vector ICONS FREE --><svg viewBox="-103 0 511 511.99961" xmlns="http://www.w3.org/2000/svg"><path d="m200.886719 120.589844 36.550781-110.640625c.761719-2.308594.371094-4.839844-1.054688-6.8125-1.425781-1.96875-3.707031-3.136719-6.140624-3.136719h-30.203126c-.035156 0-93.050781 0-93.078124 0h-30.214844c-2.421875 0-4.695313 1.15625-6.121094 3.113281-1.425781 1.953125-1.832031 4.472657-1.089844 6.777344l13.949219 43.402344c1.28125 3.984375 5.546875 6.171875 9.53125 4.894531 3.980469-1.28125 6.171875-5.546875 4.890625-9.527344l-10.769531-33.511718h14.367187l5.390625 16.9375c1.285157 4.039062 5.792969 6.265624 9.78125 4.832031 3.78125-1.359375 5.871094-5.59375 4.652344-9.425781l-3.929687-12.34375h28.523437v20.703124c0 4.179688 3.390625 7.574219 7.574219 7.574219s7.574218-3.394531 7.574218-7.574219v-20.703124h28.523438l-3.929688 12.347656c-1.1875 3.726562.757813 7.863281 4.390626 9.320312 4.03125 1.621094 8.726562-.585937 10.042968-4.726562l5.390625-16.941406h14.28125l-32.363281 97.957031h-26.335938v-12.621094c0-4.183594-3.390624-7.574219-7.574218-7.574219s-7.574219 3.390625-7.574219 7.574219v12.621094h-27.300781l-9.773438-30.417969c-1.28125-3.984375-5.550781-6.171875-9.53125-4.890625-3.980468 1.277344-6.171875 5.542969-4.890625 9.527344l10.789063 33.566406c-28.785156 9.597656-54.570313 27.917969-73.152344 52.132813-20.648438 26.898437-31.5625 59.082031-31.5625 93.078124v18.746094c0 4.179688 3.394531 7.574219 7.574219 7.574219 4.183593 0 7.574219-3.394531 7.574219-7.574219v-18.746094c0-58.476562 37.371093-110.726562 91.894531-130.003906l8.152343 60.328125c.507813 3.753907 3.714844 6.558594 7.503907 6.558594h6.566406v14.644531c0 2.183594.941406 4.261719 2.585937 5.699219l16.15625 14.136719c1.429688 1.25 3.207032 1.875 4.988282 1.875s3.558594-.625 4.988281-1.875l16.15625-14.136719c1.644531-1.4375 2.585937-3.515625 2.585937-5.699219v-14.644531h4.546876c3.75 0 6.9375-2.75 7.492187-6.460937l9.039063-60.828126c55.191406 18.945313 93.039062 71.390626 93.039062 130.40625v69.089844c0 4.183594 3.390625 7.574219 7.570312 7.574219 4.183594 0 7.574219-3.390625 7.574219-7.574219v-69.089844c0-66.328124-43.078125-125.171874-105.601562-145.511718zm-38.808594 93.597656-8.582031 7.511719-8.585938-7.511719v-11.207031h17.167969zm13.160156-26.351562h-45.417969l-8.054687-59.582032h62.332031zm0 0" fill="#000000" style="fill: rgb(255, 163, 15);"></path><path d="m298.914062 363.046875c-4.183593 0-7.574218 3.390625-7.574218 7.570313v49.667968l-73.71875 67.019532v-157.546876l47.089844-31.082031c2.125-1.402343 3.402343-3.777343 3.402343-6.320312v-50.492188c0-2.683593-1.417969-5.167969-3.734375-6.527343-2.3125-1.363282-5.171875-1.398438-7.515625-.09375l-90.890625 50.492187c-2.402344 1.335937-3.894531 3.871094-3.894531 6.621094v68.03125l-8.582031 10.730469-8.585938-10.730469v-68.03125c0-2.75-1.492187-5.285157-3.894531-6.621094l-90.890625-50.492187c-2.34375-1.304688-5.207031-1.269532-7.515625.09375-2.316406 1.359374-3.734375 3.84375-3.734375 6.527343v50.492188c0 2.542969 1.277344 4.917969 3.402344 6.320312l47.089844 31.082031v157.546876l-73.71875-67.019532v-99.96875c0-4.183594-3.390626-7.574218-7.574219-7.574218-4.183594 0-7.574219 3.390624-7.574219 7.574218v103.320313c0 2.132812.898438 4.167969 2.480469 5.605469l88.867187 80.789062c2.21875 2.015625 5.417969 2.535156 8.15625 1.320312 2.742188-1.210937 4.511719-3.925781 4.511719-6.925781v-36.53125c5.691406-3.617187 21.210937-11.4375 48.976563-11.4375 27.8125 0 43.339843 7.84375 48.980468 11.429688v36.539062c0 2.996094 1.765625 5.710938 4.507813 6.925781.984375.433594 2.027343.644532 3.0625.644532 1.851562 0 3.675781-.675782 5.097656-1.96875l88.867187-80.789063c1.578126-1.433593 2.480469-3.46875 2.480469-5.601562v-53.019531c0-4.179688-3.390625-7.570313-7.574219-7.570313zm-145.417968 78.261719c-23.074219 0-39.066406 4.878906-48.980469 9.429687v-125.058593c0-2.542969-1.277344-4.917969-3.402344-6.320313l-47.089843-31.078125v-33.546875l75.742187 42.078125v66.234375c0 1.71875.582031 3.386719 1.65625 4.730469l16.160156 20.195312c1.4375 1.796875 3.613281 2.84375 5.914063 2.84375 2.300781 0 4.476562-1.046875 5.914062-2.84375l16.15625-20.195312c1.074219-1.34375 1.660156-3.011719 1.660156-4.730469v-66.234375l75.742188-42.078125v33.546875l-47.09375 31.078125c-2.121094 1.402344-3.398438 3.777344-3.398438 6.320313v125.058593c-9.917968-4.550781-25.910156-9.429687-48.980468-9.429687zm0 0" fill="#000000" style="fill: rgb(255, 163, 15);"></path></svg>