<!-- icon666.com - MILLIONS vector ICONS FREE --><svg version="1.1" id="Capa_1" xmlns="http://www.w3.org/2000/svg" xmlns:xlink="http://www.w3.org/1999/xlink" x="0px" y="0px" viewBox="0 0 512 512" style="enable-background:new 0 0 512 512;" xml:space="preserve"><g><g><path d="M498.903,253.682l-45.028-138.583c-0.489-1.507-1.443-2.819-2.725-3.75L333.265,25.701 c-1.281-0.932-2.824-1.433-4.408-1.433H183.143c-1.584,0-3.127,0.501-4.408,1.433L60.85,111.349 c-1.282,0.931-2.235,2.243-2.725,3.75l-18.242,56.143c-1.28,3.939,0.876,8.17,4.815,9.45c3.938,1.276,8.17-0.876,9.45-4.815 L69.2,129.552l60.529,43.978l-24.358,74.97H30.553l12.72-39.148c1.28-3.939-0.876-8.17-4.815-9.45 c-3.939-1.279-8.17,0.875-9.45,4.815l-15.91,48.966c-0.49,1.506-0.49,3.129,0,4.635L58.126,396.9 c0.489,1.507,1.443,2.819,2.725,3.75l117.885,85.648c1.281,0.932,2.824,1.433,4.408,1.433h72.857c4.142,0,7.5-3.357,7.5-7.5 s-3.358-7.5-7.5-7.5h-62.535l23.12-71.156h78.828l23.12,71.156h-28.202c-4.142,0-7.5,3.357-7.5,7.5s3.358,7.5,7.5,7.5h38.524 c1.584,0,3.127-0.501,4.408-1.433l117.885-85.648c1.282-0.931,2.235-2.243,2.725-3.75l45.028-138.582 C499.393,256.811,499.393,255.188,498.903,253.682z M332.8,43.903l101.183,73.514l-60.53,43.978L309.68,115.06L332.8,43.903z M318.535,39.269l-23.12,71.156h-78.829l-23.12-71.156H318.535z M78.018,117.417L179.2,43.904l23.12,71.157l-63.773,46.334 L78.018,117.417z M30.553,263.5h74.818l24.359,74.97l-60.529,43.978L30.553,263.5z M179.201,468.095L78.018,394.582l60.529-43.978 l63.774,46.334L179.201,468.095z M332.8,468.095l-23.12-71.157l63.773-46.334l60.53,43.978L332.8,468.095z M442.799,382.447 l-60.53-43.978l24.359-74.97h74.818L442.799,382.447z M406.63,248.5l-7.44-22.899c-1.28-3.94-5.513-6.094-9.45-4.815 c-3.939,1.28-6.096,5.511-4.815,9.45l8.37,25.764l-26.221,80.698l-68.647,49.876h-84.852l-68.647-49.876L118.706,256l26.221-80.7 l68.647-49.875h84.852l68.647,49.875l7.281,22.408c1.28,3.939,5.511,6.096,9.451,4.815c3.939-1.28,6.095-5.511,4.815-9.45 l-6.35-19.544l60.529-43.978L481.448,248.5H406.63z" fill="#000000" style="fill: rgb(255, 163, 15);"></path></g></g><g><g><path d="M509.803,2.197c-2.929-2.928-7.678-2.928-10.606,0L468.164,33.23c-2.929,2.93-2.929,7.678,0,10.607 c1.464,1.464,3.383,2.196,5.303,2.196c1.919,0,3.839-0.732,5.303-2.196l31.033-31.033C512.732,9.874,512.732,5.126,509.803,2.197z " fill="#000000" style="fill: rgb(255, 163, 15);"></path></g></g><g><g><path d="M43.836,468.164c-2.928-2.929-7.677-2.929-10.606-0.001L2.197,499.196c-2.929,2.93-2.929,7.678,0,10.607 C3.661,511.267,5.581,512,7.5,512s3.839-0.732,5.303-2.196l31.033-31.033C46.765,475.841,46.765,471.093,43.836,468.164z" fill="#000000" style="fill: rgb(255, 163, 15);"></path></g></g><g><g><path d="M509.803,499.196l-31.033-31.033c-2.929-2.928-7.678-2.928-10.606,0c-2.929,2.93-2.929,7.678,0,10.607l31.033,31.033 c1.464,1.464,3.384,2.196,5.303,2.196s3.839-0.732,5.303-2.196C512.732,506.873,512.732,502.125,509.803,499.196z" fill="#000000" style="fill: rgb(255, 163, 15);"></path></g></g><g><g><path d="M43.836,33.23L12.803,2.196c-2.929-2.928-7.678-2.928-10.606,0c-2.929,2.93-2.929,7.678,0,10.607L33.23,43.837 c1.464,1.464,3.384,2.196,5.303,2.196s3.839-0.732,5.303-2.196C46.765,40.907,46.765,36.159,43.836,33.23z" fill="#000000" style="fill: rgb(255, 163, 15);"></path></g></g></svg>