<!-- icon666.com - MILLIONS vector ICONS FREE --><svg clip-rule="evenodd" fill-rule="evenodd" stroke-linejoin="round" stroke-miterlimit="2" viewBox="0 0 25 25" xmlns="http://www.w3.org/2000/svg" xmlns:serif="http://www.serif.com/"><path d="m7.578 12.159c-.467-.261-1.005-.409-1.578-.409v-6.5c1.794 0 3.25-1.456 3.25-3.25h6.5c0 1.794 1.456 3.25 3.25 3.25v6.5c-.573 0-1.111.148-1.578.409l4.073 7.055-3.206-.553-1.124 3.053-3.876-6.714h-1.578l-3.876 6.714-1.124-3.053-3.206.553zm9.048.622c-.543.581-.876 1.361-.876 2.219h-1.307l2.505 4.338.449-1.222-1.103-1.911.866-.5 1.103 1.911 1.283.222zm-11.172 5.057 1.283-.222 1.103-1.911.866.5-1.103 1.911.449 1.222 2.505-4.338h-1.307c0-.858-.333-1.638-.876-2.219zm4.677-3.838h4.738c.372-1.543 1.588-2.759 3.131-3.131v-4.738c-1.543-.372-2.759-1.588-3.131-3.131h-4.738c-.372 1.543-1.588 2.759-3.131 3.131v4.738c1.543.372 2.759 1.588 3.131 3.131zm2.369-9.595 1.353 2.536 2.832.502-1.996 2.069.397 2.846-2.586-1.258-2.586 1.258.397-2.846-1.996-2.069 2.832-.502zm-.699 3.436-1.462.259 1.03 1.068-.205 1.47 1.336-.65 1.336.65-.205-1.47 1.03-1.068-1.462-.259-.699-1.311z" fill="#000000" style="fill: rgb(255, 163, 15);"></path></svg>