<!-- icon666.com - MILLIONS vector ICONS FREE --><svg viewBox="0 0 512 512.00088" xmlns="http://www.w3.org/2000/svg"><path d="m497 0h-84.925781c-3.980469 0-7.796875 1.582031-10.609375 4.394531l-145.480469 145.515625-145.445313-145.515625c-2.816406-2.8125-6.632812-4.394531-10.609374-4.394531h-84.929688c-8.28125 0-15 6.714844-15 15v84.925781c0 3.980469 1.582031 7.796875 4.398438 10.609375l145.527343 145.460938-44.625 44.636718-10.597656-10.601562c-5.859375-5.855469-15.355469-5.855469-21.214844 0-5.855469 5.859375-5.855469 15.355469 0 21.214844 6.324219 6.320312 25.449219 25.449218 31.8125 31.8125l-66.515625 66.515625-13.179687-13.179688c-5.855469-5.859375-15.355469-5.859375-21.210938 0-5.859375 5.859375-5.859375 15.355469 0 21.210938l13.179688 13.179687-4.394531 4.394532c-17.542969 17.546874-17.542969 46.09375 0 63.640624 17.542968 17.542969 46.09375 17.546876 63.640624 0l4.394532-4.394531 13.179687 13.179688c5.855469 5.859375 15.355469 5.859375 21.210938 0 5.859375-5.855469 5.859375-15.351563 0-21.210938l-13.179688-13.179687 66.515625-66.515625c6.390625 6.390625 25.285156 25.285156 31.820313 31.820312 5.855469 5.859375 15.355469 5.859375 21.210937 0 5.859375-5.859375 5.859375-15.355469 0-21.214843l-10.605468-10.605469 44.640624-44.628907 44.625 44.628907-10.605468 10.605469c-5.859375 5.859374-5.859375 15.355468 0 21.214843 5.855468 5.855469 15.355468 5.859375 21.210937 0l31.820313-31.820312 66.515625 66.515625-13.179688 13.179687c-5.859375 5.855469-5.859375 15.351563 0 21.210938 5.855469 5.859375 15.355469 5.859375 21.210938 0l13.179687-13.179688 4.394532 4.394531c17.546874 17.542969 46.09375 17.542969 63.640624 0 17.542969-17.546874 17.542969-46.09375 0-63.640624l-4.394531-4.394532 13.179688-13.179687c5.859375-5.859375 5.859375-15.355469 0-21.210938-5.855469-5.859375-15.355469-5.859375-21.210938 0l-13.179687 13.179688-66.515625-66.515625 31.8125-31.8125c5.859375-5.859375 5.859375-15.355469 0-21.214844-5.855469-5.855469-15.355469-5.855469-21.210938 0l-10.601562 10.601562-44.613281-44.613281 145.519531-145.484375c2.8125-2.8125 4.394531-6.628906 4.394531-10.609375v-84.925781c0-8.285156-6.714844-15-15-15zm-467 93.710938v-63.710938h63.714844l141.058594 141.128906-21.214844 21.214844-97.949219-97.949219c-5.859375-5.859375-15.355469-5.859375-21.214844 0-5.859375 5.855469-5.859375 15.351563 0 21.210938l97.957031 97.957031-21.214843 21.214844zm25.609375 383.894531c-5.847656 5.847656-15.367187 5.851562-21.214844 0-5.847656-5.847657-5.847656-15.363281 0-21.214844l4.394531-4.390625 21.210938 21.214844zm4.390625-46.820313 66.515625-66.511718 21.214844 21.210937-66.515625 66.515625zm217.222656-89.921875 21.214844-21.210937 44.621094 44.621094c-1.058594 1.074218-18.105469 18.132812-21.210938 21.210937zm200.382813 115.53125c5.851562 5.847657 5.851562 15.363281 0 21.210938-5.847657 5.847656-15.363281 5.851562-21.210938 0l-4.394531-4.390625 21.214844-21.214844zm-25.605469-25.609375-21.210938 21.214844-66.515624-66.515625 21.214843-21.210937zm-66.511719-108.9375-21.214843 21.210938-44.621094-44.617188 21.21875-21.210937zm96.511719-228.132812c-18.28125 18.277344-278.535156 278.46875-291.84375 291.773437-3.144531-3.117187-20.113281-20.097656-21.214844-21.214843l248.667969-248.667969c5.855469-5.855469 5.855469-15.351563 0-21.210938-5.859375-5.859375-15.355469-5.859375-21.214844 0l-248.664062 248.664063-21.214844-21.214844c32.277344-32.285156 259.542969-259.605469 291.773437-291.84375h63.710938zm0 0" fill="#000000" style="fill: rgb(255, 163, 15);"></path></svg>